# xmcd CD database file
# Copyright (C) 1993-1998 Ti Kan
# 
# Track frame offsets:
#     182
#     30362
#     42450
#     80025
#     101162
#     120650
#     140700
#     157312
#     184712
#     204187
#     221212
#     238087
#     278225
#     308737
#     322000
#     341025
# 
# Disc length: 4705 seconds
# 
# Revision: 1
# Processed by: cddbd v1.4b41PL1 Copyright (c) Steve Scherf et al.
# Submitted via: DiscPlay 4.0.4
# 
DISCID=f7125f10
DTITLE=Tom Waits - The Heart of the Shaboo Night
DYEAR=1900
DGENRE=
TTITLE0=Eggs and Sausage (in a Cadillac with Susan Michelson)
TTITLE1=Fumblin' With The Blues
TTITLE2=Jitterbug Boy
TTITLE3=The One That Got Away
TTITLE4=Pasties and a G String (at the Two O'Clock Club)
TTITLE5=The Ghosts of Saturday Night
TTITLE6=(Looking For) The Heart of Saturday Night
TTITLE7=Emotional Weather Report
TTITLE8=I Wish I Was in New Orleans (in the Ninth Ward)
TTITLE9=Semi Suite
TTITLE10=Midnight Lullaby
TTITLE11=Spare Parts 1 (A Nocturnal Emission)
TTITLE12=Invitation to the Blues
TTITLE13=Depot, Depot
TTITLE14=San Diego Serenade
TTITLE15=New Coat of Paint
EXTD=
EXTT0=
EXTT1=
EXTT2=
EXTT3=
EXTT4=
EXTT5=
EXTT6=
EXTT7=
EXTT8=
EXTT9=
EXTT10=
EXTT11=
EXTT12=
EXTT13=
EXTT14=
EXTT15=
PLAYORDER=
